<?xml version="1.0" standalone="no"?>
<!DOCTYPE svg PUBLIC "-//W3C//DTD SVG 20010904//EN"
 "http://www.w3.org/TR/2001/REC-SVG-20010904/DTD/svg10.dtd">
<svg version="1.0" xmlns="http://www.w3.org/2000/svg"
 width="1024.000000pt" height="1024.000000pt" viewBox="0 0 1024.000000 1024.000000"
 preserveAspectRatio="xMidYMid meet">
<metadata>
Created by potrace 1.14, written by Peter Selinger 2001-2017
</metadata>
<g transform="translate(0.000000,1024.000000) scale(0.100000,-0.100000)"
fill="#000000" stroke="none">
<path d="M0 5120 l0 -5120 5120 0 5120 0 0 5120 0 5120 -5120 0 -5120 0 0
-5120z m6664 3233 c-11 -53 -65 -152 -92 -171 -37 -27 -115 -52 -160 -52 -20
0 -66 7 -102 16 -82 19 -160 20 -197 1 -67 -36 -110 -119 -120 -234 -5 -61 -3
-79 13 -108 10 -19 22 -35 25 -35 4 0 35 55 69 123 34 67 69 130 78 140 19 21
63 22 128 2 27 -8 84 -15 127 -15 l77 0 0 -92 c0 -90 -5 -109 -40 -165 -11
-17 -12 -38 -4 -103 10 -88 6 -105 -29 -114 -17 -4 -35 -28 -65 -89 -46 -92
-68 -110 -123 -98 -80 18 -192 86 -225 136 -9 14 -27 53 -39 87 -27 76 -37 64
-37 -47 -1 -71 3 -92 26 -139 17 -36 42 -66 67 -83 32 -23 38 -32 34 -53 -8
-36 -56 -103 -85 -118 -36 -19 -104 -9 -144 21 -59 46 -71 84 -71 237 0 131 1
137 29 188 17 29 47 69 68 88 l39 35 -27 34 c-33 44 -44 117 -21 143 10 10 22
61 32 127 27 181 74 259 189 311 66 30 74 30 351 25 94 -2 143 2 175 12 61 20
61 21 54 -10z m-1186 -66 c26 -24 30 -83 7 -127 -16 -32 -65 -65 -110 -74 -39
-8 -92 24 -101 60 -16 62 41 149 108 163 42 9 67 3 96 -22z m182 -343 c0 -60
-3 -68 -29 -93 -54 -50 -114 -61 -521 -91 -80 -6 -161 -13 -180 -16 -19 -2
100 42 265 99 165 58 334 118 375 135 41 17 78 31 83 31 4 1 7 -29 7 -65z
m1804 -204 c14 -5 32 -22 40 -39 22 -42 37 -190 38 -382 2 -194 4 -187 -102
-289 -66 -62 -70 -69 -95 -155 -146 -501 -211 -631 -349 -696 -145 -69 -238
-21 -552 285 l-166 161 62 65 63 65 -29 54 c-17 30 -35 56 -41 58 -7 3 -74
-56 -150 -129 -130 -125 -374 -358 -630 -600 -62 -59 -127 -123 -144 -143 -78
-88 -139 -90 -439 -12 -118 30 -264 63 -325 72 -150 23 -141 17 -109 75 61
112 166 169 283 155 31 -3 118 -20 194 -36 77 -17 141 -28 145 -25 13 14 -31
65 -171 198 -85 81 -156 157 -163 175 -24 56 -10 177 25 232 11 17 -9 31 268
-193 259 -211 293 -241 315 -274 l18 -27 0 65 c0 36 3 81 6 100 l6 36 -161
123 c-89 68 -168 133 -176 145 -8 11 -15 17 -15 12 0 -5 -7 -3 -15 4 -8 6 -13
17 -12 23 1 7 -6 12 -15 12 -10 0 -25 9 -35 20 -11 11 -12 14 -3 8 8 -6 25 -9
37 -8 12 1 20 -2 17 -6 -2 -4 0 -10 5 -13 5 -3 11 1 15 9 3 8 12 15 20 15 9 0
13 6 10 13 -3 9 11 20 41 31 25 10 45 24 45 32 0 8 8 14 18 15 9 0 12 3 5 5
-7 3 -22 0 -35 -7 -28 -14 -16 -3 35 35 20 15 37 32 36 39 0 9 -2 9 -6 0 -2
-7 -9 -13 -15 -13 -5 0 5 17 22 37 74 83 86 163 39 251 -18 33 -31 45 -69 57
-47 16 -187 18 -196 4 -2 -4 -16 -6 -30 -3 -18 3 -23 1 -18 -7 5 -8 3 -9 -7
-3 -17 10 -70 6 -86 -8 -13 -11 -33 19 -26 39 2 6 -1 14 -6 18 -6 3 -11 19
-11 35 0 16 -4 31 -8 34 -5 3 -8 -13 -8 -34 1 -22 -3 -39 -9 -39 -5 0 -13 -8
-17 -18 -11 -26 2 56 15 94 6 18 15 29 21 26 6 -4 5 1 -3 10 -12 15 -11 17 10
18 23 0 23 1 4 9 -13 6 2 7 43 3 50 -4 65 -3 75 10 14 18 127 37 224 37 88 0
155 -11 296 -50 l116 -32 -6 -102 c-9 -155 18 -244 99 -332 121 -131 299 -128
407 6 58 72 86 90 142 90 83 0 161 -78 314 -315 125 -192 201 -306 239 -359
l35 -50 20 47 c30 70 81 143 165 237 143 160 170 260 100 376 -56 92 -56 95
-38 223 18 127 32 161 68 161 40 0 56 -31 65 -121 l8 -84 16 36 c9 19 23 87
32 150 21 147 39 210 67 236 37 33 61 39 102 23z m-2774 -199 c0 -41 -71 -370
-95 -438 -3 -9 -39 8 -105 48 -56 34 -102 60 -104 58 -1 -2 -10 -29 -19 -59
-24 -81 -62 -133 -182 -256 -241 -244 -266 -306 -179 -442 41 -64 46 -79 54
-159 15 -141 13 -187 -10 -208 -24 -22 -65 -14 -81 17 -6 12 -14 59 -17 105
-5 89 -14 101 -52 63 -13 -13 -20 -33 -20 -60 0 -22 -6 -55 -14 -73 -13 -32
-226 -247 -244 -247 -14 0 -20 32 -37 191 -28 262 -25 277 75 414 29 41 128
226 235 440 216 434 265 522 303 536 37 15 251 56 375 73 56 8 105 14 110 15
4 1 7 -8 7 -18z m-720 -121 c0 -13 -69 -139 -98 -177 -35 -48 -66 -63 -291
-148 -113 -42 -279 -105 -369 -141 -90 -35 -176 -64 -191 -64 -29 0 -64 31
-75 66 -10 33 18 97 52 120 17 12 97 46 179 77 81 31 279 106 438 166 267 101
355 126 355 101z m897 -57 c-3 -10 -5 -2 -5 17 0 19 2 27 5 18 2 -10 2 -26 0
-35z m-20 -10 c-3 -10 -5 -4 -5 12 0 17 2 24 5 18 2 -7 2 -21 0 -30z m1731 -6
c80 -67 166 -170 274 -330 32 -46 44 -56 83 -66 29 -7 45 -17 45 -27 0 -17
-41 -78 -93 -138 l-33 -39 -14 34 c-26 65 -181 290 -290 420 -33 39 -60 80
-60 91 0 26 27 88 39 88 5 0 27 -15 49 -33z m-1761 -54 c0 -21 -4 -41 -9 -44
-4 -3 -11 -33 -14 -67 -4 -34 -11 -62 -15 -62 -5 0 -9 2 -9 5 0 10 22 111 27
125 6 15 8 26 11 63 3 32 10 17 9 -20z m95 -73 c7 -11 21 -20 30 -20 10 0 18
-4 18 -10 0 -5 -8 -10 -17 -10 -21 0 -9 -13 32 -34 28 -15 28 -16 7 -16 -15 0
-21 -4 -16 -12 5 -8 -4 -9 -32 -5 -21 4 -60 7 -86 7 -47 0 -48 1 -48 30 0 20
5 30 15 30 8 0 19 9 25 21 9 16 14 18 26 8 11 -9 14 -7 14 10 0 27 16 27 32 1z
m325 -38 c9 -5 6 -12 -10 -21 -20 -13 -21 -13 -9 2 11 13 10 16 -5 20 -12 3
-13 5 -3 6 8 0 20 -3 27 -7z m3 -160 c0 -5 -11 -14 -25 -20 -39 -18 -44 -14
-10 7 36 23 35 23 35 13z m-133 -58 c-3 -3 -12 -4 -19 -1 -8 3 -5 6 6 6 11 1
17 -2 13 -5z m-132 -32 c-3 -3 -11 0 -18 7 -9 10 -8 11 6 5 10 -3 15 -9 12
-12z m2640 -17 c15 -14 25 -36 25 -53 0 -65 -130 -489 -185 -607 -65 -137
-188 -272 -306 -335 -94 -50 -153 -64 -259 -63 -193 1 -332 80 -573 325 l-157
160 -93 -89 c-133 -127 -216 -186 -352 -253 -66 -32 -122 -57 -124 -54 -2 2
127 133 288 291 275 271 293 287 306 268 27 -41 288 -297 363 -356 189 -151
361 -181 539 -94 89 44 174 133 231 243 41 78 103 262 162 475 45 164 79 199
135 142z m-3943 -72 c-59 -123 -102 -200 -127 -228 -26 -30 -74 -50 -405 -170
-206 -76 -389 -140 -406 -145 -38 -9 -88 10 -103 39 -25 46 -6 110 43 140 28
18 259 106 466 179 74 26 286 106 475 178 33 13 61 23 63 23 1 1 -1 -7 -6 -16z
m-242 -625 c0 -24 3 -66 6 -95 6 -49 5 -52 -22 -66 -31 -16 -277 -97 -669
-222 -132 -42 -349 -112 -483 -156 -134 -43 -257 -79 -273 -79 -19 0 -40 10
-56 26 -21 21 -25 32 -20 65 12 88 22 93 442 228 563 180 852 274 945 306 127
45 130 45 130 -7z m1349 -364 c142 -41 256 -81 421 -149 63 -26 179 -74 258
-106 258 -105 444 -226 495 -323 29 -56 29 -153 0 -219 -52 -113 -170 -185
-563 -341 -422 -167 -577 -238 -730 -337 l-81 -52 -27 20 c-41 30 -73 83 -66
107 16 54 257 266 453 397 188 127 331 186 568 235 70 14 130 28 133 31 7 7
-79 81 -122 103 -20 11 -53 24 -75 29 -21 6 -81 22 -133 36 -52 14 -122 32
-155 39 -222 50 -444 116 -519 153 -64 32 -142 113 -156 161 -15 55 -12 152 6
187 32 63 53 76 114 70 30 -3 111 -22 179 -41z m-1684 -190 c19 -8 45 -55 45
-84 0 -36 -38 -97 -73 -119 -70 -43 -145 -19 -162 51 -10 38 29 115 69 139 31
19 89 25 121 13z m2947 -58 c65 -31 137 -112 181 -204 39 -81 41 -90 45 -198
4 -102 2 -122 -22 -198 -30 -98 -80 -177 -171 -270 -139 -142 -326 -237 -924
-471 -325 -127 -476 -212 -614 -349 -107 -106 -189 -231 -314 -479 -107 -213
-112 -220 -112 -177 -1 67 24 205 53 293 45 136 156 320 265 440 202 223 360
312 991 562 268 106 385 160 472 218 67 45 160 142 188 198 57 111 64 269 18
371 -33 72 -114 167 -194 227 l-65 50 33 4 c59 8 132 1 170 -17z m-1792 -61
c0 -5 -5 -3 -10 5 -5 8 -10 20 -10 25 0 6 5 3 10 -5 5 -8 10 -19 10 -25z m31
-5 c-8 -4 -11 -15 -8 -25 4 -9 11 -13 17 -10 6 4 8 11 5 16 -4 5 -2 9 4 9 5 0
9 -9 8 -19 0 -11 -5 -17 -10 -14 -5 3 -7 0 -5 -8 3 -8 11 -13 17 -11 7 1 9 -2
6 -8 -9 -14 -42 14 -51 42 -6 19 14 54 25 43 3 -3 -1 -10 -8 -15z m-736 -56
c61 -66 5 -180 -99 -204 -74 -16 -118 15 -118 85 0 108 151 190 217 119z m810
-54 c-8 -13 1 -13 28 1 21 10 21 10 3 -5 -18 -15 -15 -21 7 -17 5 1 6 -3 2 -9
-4 -6 -15 -4 -30 6 -21 14 -26 34 -9 34 3 0 2 -4 -1 -10z m86 -57 c12 -16 12
-17 -1 -7 -8 6 -22 14 -30 17 -13 5 -12 6 1 6 9 1 23 -7 30 -16z m176 -39 c-3
-3 -12 -4 -19 -1 -8 3 -5 6 6 6 11 1 17 -2 13 -5z m-404 -24 c34 -27 42 -68
21 -118 -19 -50 -55 -74 -149 -100 -39 -11 -128 -39 -200 -62 -126 -40 -1003
-312 -1195 -370 -52 -16 -115 -36 -139 -44 -24 -9 -56 -16 -71 -16 -29 0 -64
31 -74 67 -11 36 26 108 71 136 22 14 222 81 468 156 237 73 552 170 700 216
564 175 528 167 568 135z m364 14 c-3 -3 -12 -4 -19 -1 -8 3 -5 6 6 6 11 1 17
-2 13 -5z m988 -154 c3 -6 -1 -7 -9 -4 -18 7 -21 14 -7 14 6 0 13 -4 16 -10z
m-3306 -61 c60 -21 77 -95 38 -164 -70 -123 -237 -111 -237 18 0 57 32 105 90
135 50 25 64 26 109 11z m4726 -73 c25 -20 30 -31 30 -69 0 -72 -57 -134 -133
-144 -34 -5 -44 -1 -66 20 -39 39 -43 73 -15 126 17 33 36 52 69 69 56 28 78
28 115 -2z m-2189 -89 c5 -4 0 -5 -10 -1 -14 5 -17 4 -11 -5 6 -10 3 -11 -14
-2 -11 7 -21 13 -21 14 0 7 49 1 56 -6z m-596 -4 c-8 -3 -34 -14 -57 -24 -24
-10 -43 -16 -43 -13 0 8 83 44 100 43 13 -1 13 -1 0 -6z m535 -3 c3 -5 1 -10
-4 -10 -6 0 -11 5 -11 10 0 6 2 10 4 10 3 0 8 -4 11 -10z m-512 -27 c-7 -2
-19 -2 -25 0 -7 3 -2 5 12 5 14 0 19 -2 13 -5z m522 -7 c-11 -8 -23 -12 -26
-10 -4 2 -12 -3 -19 -11 -7 -8 -9 -15 -4 -15 5 0 -3 -8 -16 -17 -14 -9 -59
-45 -101 -80 -79 -65 -111 -82 -69 -38 13 14 21 25 19 25 -3 0 -18 -14 -35
-32 -16 -17 -22 -27 -14 -23 10 5 8 0 -4 -13 -12 -13 -26 -20 -36 -17 -12 4
-23 -4 -34 -22 l-17 -28 20 23 c10 12 23 22 27 22 14 0 -30 -41 -83 -76 -29
-19 -58 -32 -65 -28 -7 5 -9 2 -5 -9 5 -13 2 -15 -17 -7 -14 5 -28 4 -37 -2
-12 -8 -11 -9 2 -5 9 3 21 2 28 -2 6 -4 -6 -8 -28 -9 -32 -2 -39 1 -35 13 4 8
1 15 -5 15 -6 0 -11 -4 -11 -10 0 -5 -17 -9 -37 -9 -31 2 -33 3 -10 6 18 3 27
10 27 23 0 13 5 17 14 14 8 -3 25 0 38 7 13 7 28 12 34 11 6 -1 19 7 29 18 18
20 17 20 -8 20 -14 0 -27 -5 -29 -11 -2 -5 -20 -14 -41 -18 -33 -8 -37 -7 -37
10 0 15 7 19 40 19 l40 0 0 40 0 40 40 0 40 0 0 40 c0 43 4 47 26 26 21 -22
18 -63 -6 -71 -22 -7 -25 -22 -10 -45 8 -12 16 -8 44 25 18 22 34 45 36 50 1
6 6 16 12 23 13 15 -4 16 -19 1 -7 -7 -16 -5 -28 8 -17 17 -17 18 16 25 19 4
42 5 51 2 9 -3 25 -7 35 -9 10 -2 27 -6 38 -10 15 -5 16 -4 6 3 -11 8 -11 10
0 15 8 3 2 6 -13 6 -43 1 -33 21 10 21 20 0 51 7 67 16 17 9 44 16 61 17 21 1
31 6 30 15 -1 8 15 21 34 28 47 17 58 17 35 0z m-595 -6 c-8 -5 -19 -10 -25
-10 -5 0 -3 5 5 10 8 5 20 10 25 10 6 0 3 -5 -5 -10z m-35 -30 c-3 -5 -15 -8
-26 -7 -19 1 -19 2 -3 14 18 13 38 8 29 -7z m-117 -43 c8 -10 6 -13 -8 -14
-11 -1 -22 2 -25 8 -4 5 2 6 11 2 12 -4 15 -3 10 5 -10 16 -1 15 12 -1z m59
-7 c14 -11 23 -20 20 -20 -14 0 -57 24 -57 32 0 13 10 10 37 -12z m-193 -78
c-24 -21 -31 -34 -29 -59 1 -22 -2 -30 -12 -26 -16 6 -17 20 0 26 6 2 9 8 5
12 -4 4 -16 2 -25 -5 -10 -7 4 9 32 34 27 25 52 46 55 46 3 -1 -9 -13 -26 -28z
m246 -131 l45 -8 -37 -7 c-21 -5 -38 -12 -38 -16 0 -4 -15 -6 -34 -3 -25 3
-35 0 -40 -13 -6 -15 0 -16 46 -11 29 3 47 4 39 0 -11 -5 -11 -7 0 -14 10 -6
8 -9 -8 -9 -12 0 -23 -4 -25 -10 -2 -6 -14 -6 -33 -1 -29 9 -29 9 -5 11 14 1
19 4 12 7 -7 3 -27 -2 -45 -10 -18 -8 -41 -18 -52 -21 -11 -3 5 -3 35 -1 l55
5 -40 -15 c-22 -8 -47 -12 -55 -9 -8 3 -11 2 -7 -2 3 -4 -11 -15 -32 -26 -21
-10 -48 -28 -60 -39 -12 -12 -25 -18 -29 -14 -4 4 2 13 13 22 20 15 20 15 0
11 -14 -2 -20 -12 -21 -33 -3 -63 -77 -187 -103 -171 -5 4 -13 1 -17 -5 -5 -8
-3 -9 6 -4 9 6 11 4 6 -4 -5 -7 -15 -10 -23 -7 -8 3 -12 2 -9 -3 8 -12 -31
-44 -44 -36 -6 3 -9 1 -8 -7 2 -7 -3 -12 -9 -10 -7 1 -13 -2 -13 -7 0 -5 -17
-20 -37 -32 -68 -42 -321 -246 -458 -370 -22 -20 -69 -62 -105 -94 -96 -86
-221 -204 -342 -321 -80 -79 -111 -103 -125 -98 -15 5 -15 4 -3 -5 13 -9 12
-12 -5 -25 -11 -8 -23 -12 -27 -10 -4 2 -10 -1 -14 -7 -5 -8 -3 -9 7 -4 12 8
12 6 0 -8 -13 -16 -15 -16 -28 3 -10 14 -21 19 -33 15 -19 -6 -19 -8 -11 77 1
12 8 16 29 12 15 -2 23 -1 17 3 -18 14 -11 37 18 61 15 13 27 29 27 36 0 6 9
18 20 26 11 8 20 19 20 25 0 15 93 100 105 97 6 -2 7 0 3 4 -4 4 -2 14 4 23
32 41 -44 -34 -128 -127 -65 -72 -91 -107 -87 -119 4 -10 2 -14 -4 -10 -12 8
-40 -22 -41 -43 0 -8 -2 -30 -5 -47 -3 -21 -1 -30 6 -26 6 4 7 1 2 -6 -6 -10
-3 -11 16 -1 19 11 24 10 36 -6 17 -23 16 -29 -3 -45 -14 -12 -20 -9 -45 21
-16 19 -29 41 -29 48 0 8 -6 12 -14 9 -38 -15 -1 55 167 308 242 365 408 555
590 672 68 45 262 144 305 158 22 6 23 5 13 -14 -7 -12 -16 -21 -20 -21 -5 0
-11 -7 -14 -14 -4 -10 -1 -13 9 -9 7 3 14 10 14 15 0 6 6 5 15 -2 10 -9 15 -9
15 -1 0 6 -4 11 -10 11 -17 0 2 31 29 45 25 13 59 44 122 115 18 19 26 26 18
15 -7 -11 -22 -30 -33 -42 -11 -13 -16 -26 -13 -30 4 -3 16 4 27 17 11 13 20
18 20 12 0 -19 -31 -42 -55 -42 -29 0 -41 -16 -25 -35 8 -10 9 -15 2 -15 -6 0
-9 -7 -6 -15 9 -24 44 -19 39 5 -4 20 15 26 67 21 9 -1 19 7 23 19 4 12 14 20
22 18 14 -3 96 66 91 76 -2 3 14 22 34 43 33 34 43 38 86 38 45 -1 48 1 44 22
-4 21 -1 23 37 23 22 0 41 5 41 10 0 11 45 12 110 1z m-355 -22 c11 -16 1 -19
-13 -3 -7 8 -8 14 -3 14 5 0 13 -5 16 -11z m-74 -22 c-10 -9 -11 -8 -5 6 3 10
9 15 12 12 3 -3 0 -11 -7 -18z m-37 -42 c-4 -8 -11 -15 -16 -15 -6 0 -5 6 2
15 7 8 14 15 16 15 2 0 1 -7 -2 -15z m509 -2 c-7 -2 -21 -2 -30 0 -10 3 -4 5
12 5 17 0 24 -2 18 -5z m-508 -33 c-3 -5 -12 -10 -18 -10 -7 0 -6 4 3 10 19
12 23 12 15 0z m-910 -26 c28 -31 32 -71 11 -113 -19 -35 -49 -55 -122 -80
-33 -11 -185 -63 -338 -115 -154 -53 -295 -96 -316 -96 -52 0 -80 29 -80 83 0
46 18 80 53 99 43 24 703 246 735 247 24 1 40 -6 57 -25z m1418 -90 l46 -7 -6
-76 c-7 -89 3 -116 69 -188 l41 -44 -21 -27 c-164 -209 -265 -428 -279 -604
l-6 -79 -24 23 c-38 35 -71 109 -83 184 -11 69 -9 143 11 323 8 70 7 124 -2
210 -15 139 -9 176 34 225 49 57 114 74 220 60z m208 -26 c6 -12 31 -42 55
-68 l42 -45 -27 -34 -27 -33 -36 31 c-20 17 -43 47 -52 66 -15 31 -15 38 -2
70 17 40 30 44 47 13z m3495 -139 c67 -41 77 -78 82 -304 7 -331 -12 -423
-109 -529 -62 -68 -132 -104 -301 -157 l-138 -43 0 -211 0 -210 -113 -33 c-62
-17 -116 -32 -120 -32 -4 0 -7 310 -7 689 l0 688 223 68 c330 101 347 105 400
100 27 -2 64 -14 83 -26z m-4115 -380 c-7 -19 -28 -30 -92 -53 -113 -39 -402
-153 -464 -183 l-50 -24 85 81 c151 145 444 370 510 392 13 4 15 -11 18 -92 1
-53 -2 -108 -7 -121z m3271 -236 c-1 -236 -3 -494 -5 -574 l-2 -145 -38 -77
c-47 -95 -125 -178 -199 -212 -90 -41 -285 -95 -341 -95 -96 0 -165 60 -186
161 -13 57 -14 338 -4 816 l6 330 111 32 c61 17 114 31 119 31 4 0 7 -243 7
-541 0 -429 3 -540 13 -536 6 2 64 21 127 42 63 20 121 41 128 47 9 8 12 129
12 544 l0 533 103 31 c56 17 107 33 112 35 41 15 40 27 37 -422z m-864 30 l-3
-137 -115 -35 c-63 -19 -116 -36 -118 -37 -2 -1 -3 -130 -2 -286 0 -155 -2
-398 -6 -539 l-7 -256 -111 -37 c-61 -20 -115 -36 -119 -36 -4 0 -7 243 -7
540 l0 540 -22 -10 c-28 -11 -215 -70 -222 -70 -3 0 -6 63 -6 140 l0 139 143
45 c78 24 219 68 312 96 94 28 188 58 210 65 79 27 76 32 73 -122z m-963 -184
c54 -15 120 -82 135 -138 7 -29 10 -115 8 -255 -3 -238 -4 -241 -93 -351 l-46
-56 71 -220 c39 -121 73 -226 76 -233 4 -10 -23 -22 -93 -44 -153 -48 -148
-48 -161 -15 -17 44 -39 112 -77 245 -20 67 -37 124 -39 126 -2 2 -22 -2 -45
-8 l-41 -11 0 -92 c0 -147 -34 -243 -121 -340 -56 -64 -119 -96 -264 -137
-188 -52 -274 -34 -328 69 l-28 55 3 460 c3 454 3 462 26 518 12 31 39 77 58
103 71 93 89 100 560 244 321 98 328 100 399 80z m-2001 -144 c42 -38 31 -116
-20 -150 -13 -8 -92 -41 -176 -71 -286 -105 -398 -173 -572 -347 -167 -166
-347 -384 -552 -670 -31 -43 -58 -76 -60 -74 -8 8 58 184 102 271 95 187 319
474 519 663 168 160 277 226 620 377 75 33 104 33 139 1z m-1142 -107 c36 -10
39 -14 33 -37 -3 -14 -8 -55 -11 -91 -7 -75 6 -116 57 -180 37 -46 44 -29 -72
-172 -145 -179 -247 -342 -321 -513 l-39 -90 5 140 c3 79 16 209 31 300 27
161 33 262 26 431 -4 80 -2 95 19 131 52 93 143 120 272 81z m183 -108 c3 -5
1 -10 -4 -10 -6 0 -11 5 -11 10 0 6 2 10 4 10 3 0 8 -4 11 -10z m1677 -20 c52
-15 94 -53 113 -103 14 -36 16 -81 13 -297 -3 -252 -3 -256 -30 -312 -33 -71
-99 -143 -158 -173 -47 -24 -260 -95 -283 -95 -16 0 -27 -135 -27 -330 l0
-116 -112 -32 c-62 -18 -115 -32 -118 -32 -3 0 -4 299 -2 665 l2 666 28 10
c43 17 392 129 447 144 62 17 80 18 127 5z m-1628 -23 c24 -21 25 -25 12 -37
-15 -12 -21 -7 -17 14 2 12 -19 36 -33 36 -7 0 -6 -3 2 -9 7 -4 15 -22 17 -40
4 -28 3 -30 -11 -16 -8 8 -13 19 -9 24 3 6 -3 14 -12 20 -16 9 -16 12 -3 21
21 14 23 13 54 -13z m825 -252 c16 -8 40 -29 53 -47 21 -30 23 -44 23 -148 l0
-114 -105 -33 c-57 -18 -106 -30 -108 -28 -3 3 -7 27 -10 55 -2 27 -8 50 -11
50 -8 0 -115 -34 -178 -57 l-43 -15 0 -88 0 -88 33 -5 c17 -4 79 -11 137 -17
180 -19 241 -47 269 -123 17 -43 14 -354 -3 -410 -20 -68 -99 -172 -159 -212
-54 -36 -171 -79 -295 -110 -117 -28 -190 -7 -229 68 -18 35 -30 213 -16 233
4 7 58 27 118 47 l110 34 5 -53 5 -53 103 34 c56 18 109 39 117 45 11 9 15 35
15 96 0 102 10 95 -189 125 -178 26 -205 34 -235 69 -34 41 -39 74 -34 257 3
146 5 162 30 216 60 128 133 187 296 241 181 60 235 66 301 31z"/>
<path d="M4930 7536 c0 -2 9 -6 20 -9 11 -3 20 -1 20 4 0 5 -9 9 -20 9 -11 0
-20 -2 -20 -4z"/>
<path d="M5243 7463 c15 -2 37 -2 50 0 12 2 0 4 -28 4 -27 0 -38 -2 -22 -4z"/>
<path d="M5143 7453 c9 -2 23 -2 30 0 6 3 -1 5 -18 5 -16 0 -22 -2 -12 -5z"/>
<path d="M4931 7404 c0 -11 3 -14 6 -6 3 7 2 16 -1 19 -3 4 -6 -2 -5 -13z"/>
<path d="M4901 7374 c0 -11 3 -14 6 -6 3 7 2 16 -1 19 -3 4 -6 -2 -5 -13z"/>
<path d="M5115 6860 c3 -5 12 -7 20 -3 21 7 19 13 -6 13 -11 0 -18 -4 -14 -10z"/>
<path d="M5096 6841 c-4 -5 -2 -12 3 -15 5 -4 12 -2 15 3 4 5 2 12 -3 15 -5 4
-12 2 -15 -3z"/>
<path d="M4640 4850 c0 -5 -3 -9 -7 -8 -20 5 -52 -14 -46 -28 5 -14 -12 -20
-20 -6 -2 4 -3 2 -1 -4 1 -6 -3 -17 -9 -24 -7 -7 0 -5 16 5 15 9 27 21 27 26
0 5 11 14 25 19 21 8 36 30 20 30 -3 0 -5 -4 -5 -10z"/>
<path d="M4480 4779 c0 -6 -7 -8 -17 -5 -15 6 -15 4 2 -14 10 -11 21 -17 24
-13 3 4 9 10 12 13 4 3 1 11 -7 18 -10 9 -14 9 -14 1z"/>
<path d="M4400 4709 c0 -5 5 -7 10 -4 6 3 10 8 10 11 0 2 -4 4 -10 4 -5 0 -10
-5 -10 -11z"/>
<path d="M4435 4700 c3 -5 11 -10 16 -10 6 0 7 5 4 10 -3 6 -11 10 -16 10 -6
0 -7 -4 -4 -10z"/>
<path d="M4353 4634 c4 -4 -1 -17 -10 -28 l-18 -21 25 20 c14 11 26 20 28 21
2 1 -5 5 -15 8 -9 4 -14 4 -10 0z"/>
<path d="M3928 4533 c6 -2 18 -2 25 0 6 3 1 5 -13 5 -14 0 -19 -2 -12 -5z"/>
<path d="M3800 4504 c0 -14 3 -14 15 -4 8 7 15 14 15 16 0 2 -7 4 -15 4 -8 0
-15 -7 -15 -16z"/>
<path d="M3790 4472 c0 -5 -10 -14 -22 -20 -14 -6 -17 -11 -8 -11 22 -1 54 26
41 34 -6 3 -11 2 -11 -3z"/>
<path d="M3866 4471 c-4 -5 3 -7 14 -4 23 6 26 13 6 13 -8 0 -17 -4 -20 -9z"/>
<path d="M3714 4418 l-19 -23 23 19 c12 11 22 21 22 23 0 8 -8 2 -26 -19z"/>
<path d="M3760 4396 c0 -2 8 -10 18 -17 15 -13 16 -12 3 4 -13 16 -21 21 -21
13z"/>
<path d="M3471 4350 c-13 -11 -21 -20 -18 -20 14 0 57 24 57 32 0 13 -13 9
-39 -12z"/>
<path d="M3687 4305 c3 -8 9 -12 14 -9 12 7 11 11 -5 17 -10 4 -13 1 -9 -8z"/>
<path d="M3328 4231 c-13 -14 -16 -20 -7 -13 9 6 18 10 21 7 3 -3 12 3 21 13
14 16 15 19 2 19 -8 0 -25 -12 -37 -26z"/>
<path d="M3261 4166 c-18 -19 -28 -36 -23 -40 5 -3 15 1 22 9 7 8 9 15 4 15
-4 0 3 11 16 25 13 14 21 25 19 25 -3 0 -20 -15 -38 -34z"/>
<path d="M3329 4187 c6 -8 7 -18 3 -22 -4 -5 -1 -5 6 -1 10 6 10 11 1 22 -6 8
-14 14 -16 14 -3 0 0 -6 6 -13z"/>
<path d="M3190 4102 c-14 -15 -72 -70 -130 -122 -123 -111 -400 -388 -400
-400 0 -4 21 14 48 42 26 27 60 61 75 76 16 15 41 40 55 56 15 15 32 32 37 37
6 5 25 22 44 38 19 17 39 27 44 24 6 -4 7 -1 2 7 -9 15 63 83 78 73 6 -3 7 -1
4 4 -8 12 169 183 179 174 4 -3 4 0 0 7 -9 15 -6 16 -36 -16z"/>
<path d="M2556 3452 c-3 -5 1 -9 9 -9 8 0 12 4 9 9 -3 4 -7 8 -9 8 -2 0 -6 -4
-9 -8z"/>
<path d="M2461 3317 c-13 -21 -12 -21 5 -5 10 10 16 20 13 22 -3 3 -11 -5 -18
-17z"/>
<path d="M2352 3240 c-10 -16 -10 -20 2 -20 7 0 16 9 19 20 3 11 2 20 -2 20
-3 0 -12 -9 -19 -20z"/>
<path d="M2390 3160 c0 -5 9 -8 20 -7 21 1 18 10 -5 13 -8 1 -15 -2 -15 -6z"/>
<path d="M7540 3895 l-135 -43 -7 -158 c-6 -153 -3 -224 11 -224 14 0 257 84
269 93 9 7 12 58 12 193 0 101 -3 184 -7 183 -5 0 -69 -20 -143 -44z"/>
<path d="M4973 3129 l-93 -30 0 -174 c0 -96 2 -175 3 -175 2 0 30 9 62 20 131
45 145 69 145 253 0 103 -3 137 -12 137 -7 -1 -55 -14 -105 -31z"/>
<path d="M4500 2983 c-58 -19 -106 -37 -108 -38 -1 -1 -5 -176 -9 -389 l-5
-387 28 7 c16 4 72 21 124 38 l95 31 3 388 c2 306 0 387 -10 386 -7 0 -60 -16
-118 -36z"/>
<path d="M3660 2740 l-115 -37 -3 -177 c-1 -97 -1 -176 1 -176 9 0 207 69 225
79 21 11 22 18 22 181 0 94 -3 170 -7 169 -5 0 -60 -18 -123 -39z"/>
</g>
</svg>
